<svg width="32" height="32" viewBox="0 0 32 32" fill="none" xmlns="http://www.w3.org/2000/svg">
<g clip-path="url(#clip0_13_6248)">
<path d="M10.6562 0C4.78062 0 0 4.78062 0 10.6562C0 16.5319 4.78062 21.3125 10.6562 21.3125C12.0825 21.3125 13.4625 21.0369 14.7444 20.5031V11.7294C14.7444 10.1788 16.0044 8.91687 17.5537 8.91687H21.1706C20.3375 3.86562 15.94 0 10.6562 0ZM13.335 12.5444C13.2181 13.24 12.8681 13.8856 12.3494 14.3619C12.005 14.6788 11.6056 14.9062 11.1681 15.04V15.4081C11.1681 15.9087 10.7756 16.3181 10.2812 16.3444C10.25 16.3456 10.2181 16.3456 10.1856 16.3444C9.68125 16.3206 9.29313 15.8862 9.29313 15.3819V15.1362C8.72937 15.0619 8.24938 14.8787 7.60938 14.46C7.1625 14.1675 7.04688 13.5581 7.36688 13.1206C7.66375 12.715 8.23625 12.6319 8.65812 12.9056C9.22937 13.2762 9.45625 13.3106 10.225 13.3056C10.2438 13.3056 10.2625 13.305 10.2812 13.3044C10.99 13.2725 11.4019 12.7331 11.4856 12.2338C11.5375 11.9269 11.5156 11.3744 10.7937 11.1194C10.6087 11.0538 10.4388 10.9919 10.2812 10.9325C10.1369 10.8775 10.0031 10.8256 9.87813 10.775C9.17 10.4869 8.65875 10.21 8.2675 9.9025C7.59875 9.37813 7.29312 8.475 7.46812 7.54437C7.6575 6.54125 8.35625 5.74188 9.29313 5.45563V5.15438C9.29313 4.62187 9.7375 4.1925 10.2762 4.21812C10.2781 4.21812 10.2794 4.21812 10.2812 4.21875C10.7831 4.245 11.1681 4.67812 11.1681 5.18062V5.39437C11.955 5.58938 12.4356 6.01187 12.5044 6.075C12.9156 6.40375 12.9725 7.01 12.6281 7.40875C12.3175 7.76937 11.7856 7.8375 11.3944 7.5675L11.2456 7.46438C11.23 7.45125 10.8625 7.14625 10.2812 7.17188H10.2756C10.1337 7.17812 9.99 7.20375 9.84437 7.2475C9.43937 7.36937 9.33375 7.77187 9.31063 7.89187C9.2675 8.12125 9.31437 8.34125 9.42437 8.4275C9.62187 8.5825 9.90375 8.74062 10.2812 8.90875C10.3763 8.95125 10.4769 8.99438 10.5844 9.03813C10.8188 9.13313 11.0925 9.23625 11.4194 9.35188C12.8031 9.84125 13.5731 11.1238 13.335 12.5444Z" fill="#CEA026"/>
<path d="M16.6194 28.6489H20.5719V32.0002H17.5569C17.0394 32.0002 16.6194 31.5802 16.6194 31.0627V28.6489Z" fill="#005D7B"/>
<path d="M22.4469 28.6489H26.1969V32.0002H22.4469V28.6489Z" fill="#005D7B"/>
<path d="M32 28.6489V31.0627C32 31.5802 31.58 32.0002 31.0625 32.0002H28.0719V28.6489H32Z" fill="#005D7B"/>
<path d="M16.6194 23.0239H20.5719V26.7739H16.6194V23.0239Z" fill="#005D7B"/>
<path d="M22.4469 23.0239H26.1969V26.7739H22.4469V23.0239Z" fill="#005D7B"/>
<path d="M28.0719 23.0239H32V26.7739H28.0719V23.0239Z" fill="#005D7B"/>
<path d="M16.6194 17.6387H20.5719V21.1487H16.6194V17.6387Z" fill="#005D7B"/>
<path d="M22.4469 17.6387H26.1969V21.1487H22.4469V17.6387Z" fill="#005D7B"/>
<path d="M32 11.7295V15.7639H16.6194V11.7295C16.6194 11.212 17.0375 10.792 17.5538 10.792H31.0663C31.5819 10.792 32 11.212 32 11.7295Z" fill="#005D7B"/>
<path d="M28.0719 17.6387H32V21.1487H28.0719V17.6387Z" fill="#005D7B"/>
</g>
<defs>
<clipPath id="clip0_13_6248">
<rect width="32" height="32" fill="white"/>
</clipPath>
</defs>
</svg>
