<svg width="90" height="90" viewBox="0 0 90 90" fill="none" xmlns="http://www.w3.org/2000/svg">
<path d="M16.4687 47.6144C16.4687 47.9653 16.1547 48.2793 15.8038 48.2793H14.9173C14.5664 48.2793 14.2524 47.9653 14.2524 47.6144V36.3853C14.2524 36.0344 14.5664 35.7205 14.9173 35.7205H15.9331C16.2471 35.7205 16.598 35.9051 16.8011 36.1637L20.772 41.5751L24.5581 36.1637C24.7428 35.8867 25.0752 35.7205 25.4076 35.7205H26.2942C26.6451 35.7205 26.959 36.0344 26.959 36.3853V47.6144C26.959 47.9653 26.6451 48.2793 26.2942 48.2793H25.4261C25.0752 48.2793 24.7612 47.9653 24.7612 47.6144V39.1926L21.4738 43.8098C21.2337 44.1238 20.9382 44.29 20.6242 44.29C20.3102 44.29 19.9963 44.1238 19.7562 43.8098L16.4502 39.248V47.6144H16.4687Z" fill="white"/>
<path d="M38.0409 36.3853C38.0409 36.0344 38.3548 35.7205 38.7057 35.7205H39.5738C39.9247 35.7205 40.2387 36.0344 40.2387 36.3853V43.0711C40.2387 46.9126 37.8931 48.464 35.2521 48.464C32.1308 48.464 29.9146 46.6171 29.9146 42.9418V36.3853C29.9146 36.0344 30.2285 35.7205 30.5794 35.7205H31.4659C31.8168 35.7205 32.1308 36.0344 32.1308 36.3853V42.4801C32.1308 44.8256 33.0912 46.4139 35.2705 46.4139C37.1728 46.4139 38.0593 45.0657 38.0593 42.6278V36.3853H38.0409Z" fill="white"/>
<path d="M46.9244 43.5698H45.373V47.6145C45.373 47.9654 45.059 48.2794 44.7081 48.2794H43.8216C43.4707 48.2794 43.1567 47.9654 43.1567 47.6145V36.3854C43.1567 36.0345 43.4522 35.7205 43.8216 35.7205C44.8928 35.7021 46.6843 35.6836 46.9798 35.6836C50.3965 35.6836 51.5416 37.3827 51.5416 39.5621C51.5416 41.7229 50.1564 42.7941 49.1222 43.145L52.2434 47.2266C52.3542 47.3559 52.3912 47.5037 52.3912 47.6145C52.3912 47.9469 52.1141 48.2609 51.7448 48.2609H50.9321C50.6182 48.2609 50.2673 48.0762 50.0641 47.8177L46.9244 43.5698ZM46.8136 41.5198C48.0879 41.5198 49.2145 40.8734 49.2145 39.5805C49.2145 38.6017 48.6789 37.7521 46.8875 37.7521C46.4811 37.7521 45.964 37.7706 45.373 37.789V41.5198H46.8136Z" fill="white"/>
<path d="M56.232 45.0658L55.1239 47.7807C55.013 48.0947 54.7175 48.2794 54.3851 48.2794H53.7387C53.3324 48.2794 53.0369 47.9654 53.0369 47.5776C53.0369 47.5037 53.0553 47.4113 53.0923 47.319L57.7834 36.1823C57.9127 35.8683 58.2082 35.6836 58.5406 35.6836H59.4086C59.7226 35.6836 60.0366 35.8868 60.1659 36.1823L64.857 47.319C64.8939 47.4113 64.9124 47.5037 64.9124 47.5776C64.9124 47.9469 64.6169 48.2794 64.2105 48.2794H63.4349C63.1209 48.2794 62.8069 48.0762 62.6961 47.7807L61.588 45.0658H56.232ZM57.0816 42.9973H60.7569L58.9284 38.5278L57.0816 42.9973Z" fill="white"/>
<path d="M74.5536 47.6144C74.5536 47.9653 74.2397 48.2793 73.8887 48.2793H67.3692C67.0183 48.2793 66.7043 47.9653 66.7043 47.6144V36.3853C66.7043 36.0344 67.0183 35.7205 67.3692 35.7205H68.2557C68.6066 35.7205 68.9206 36.0344 68.9206 36.3853V46.2108H73.9072C74.2581 46.2108 74.5721 46.5248 74.5721 46.8757V47.6144H74.5536Z" fill="white"/>
<path d="M17.1885 50.0338C19.0539 50.0338 20.439 51.2528 20.439 53.192C20.439 55.0389 19.0539 56.3502 17.1885 56.3502C15.3232 56.3502 13.938 55.1312 13.938 53.192C13.9565 51.419 15.2493 50.0338 17.1885 50.0338ZM17.1885 55.0389C18.3521 55.0389 18.9431 54.2262 18.9431 53.192C18.9431 52.0839 18.1674 51.3451 17.1885 51.3451C16.1727 51.3451 15.434 52.0839 15.434 53.192C15.434 54.2447 16.2097 55.0389 17.1885 55.0389Z" fill="white"/>
<path d="M27.9007 50.1447C28.1223 50.1447 28.307 50.3293 28.307 50.551V55.8515C28.307 56.0732 28.1223 56.2579 27.9007 56.2579H27.4944C27.3097 56.2579 27.1065 56.1655 26.9957 56.0178L24.2808 52.601V55.87C24.2808 56.0916 24.0961 56.2763 23.8745 56.2763H23.3758C23.1542 56.2763 22.9695 56.0916 22.9695 55.87V50.5694C22.9695 50.3478 23.1542 50.1631 23.3758 50.1631H23.7821C23.9668 50.1631 24.17 50.2555 24.2808 50.4032L26.9957 53.8384V50.551C26.9957 50.3293 27.1804 50.1447 27.402 50.1447H27.9007Z" fill="white"/>
<path d="M34.0325 51.3452C33.0906 51.3452 32.3149 51.9916 32.3149 53.1921C32.3149 54.2818 33.0721 55.039 34.1618 55.039C34.4758 55.039 34.8082 54.9651 35.1222 54.7989C35.2145 54.762 35.2884 54.7435 35.3808 54.7435C35.5285 54.7435 35.6578 54.7989 35.7317 54.9467L35.9348 55.2791C35.9718 55.3345 35.9902 55.4268 35.9902 55.5007C35.9902 55.63 35.9348 55.7778 35.8055 55.8701C35.2699 56.2395 34.7343 56.3503 34.0325 56.3503C32.1302 56.3503 30.8374 55.0944 30.8374 53.1921C30.8374 51.4376 31.9271 50.0339 34.0325 50.0339C34.6605 50.0339 35.0668 50.1447 35.51 50.3664C35.6393 50.4218 35.7132 50.5695 35.7132 50.6988C35.7132 50.7727 35.6947 50.8281 35.6763 50.8835L35.4916 51.2898C35.4177 51.456 35.2699 51.5299 35.1222 51.5299C35.0483 51.5299 34.9744 51.5114 34.919 51.493C34.6605 51.4006 34.3834 51.3452 34.0325 51.3452Z" fill="white"/>
<path d="M40.9024 50.0339C42.7677 50.0339 44.1529 51.2529 44.1529 53.1921C44.1529 55.039 42.7677 56.3503 40.9024 56.3503C39.037 56.3503 37.6519 55.1313 37.6519 53.1921C37.6703 51.4191 38.9631 50.0339 40.9024 50.0339ZM40.9024 55.039C42.0659 55.039 42.6569 54.2264 42.6569 53.1921C42.6569 52.084 41.8812 51.3452 40.9024 51.3452C39.8866 51.3452 39.1478 52.084 39.1478 53.1921C39.1478 54.2448 39.942 55.039 40.9024 55.039Z" fill="white"/>
<path d="M50.58 55.8515C50.58 56.0732 50.3954 56.2579 50.1737 56.2579H47.0894C46.8678 56.2579 46.6831 56.0732 46.6831 55.8515V50.551C46.6831 50.3293 46.8678 50.1447 47.0894 50.1447H47.6804C47.9021 50.1447 48.0867 50.3293 48.0867 50.551V54.9466H50.1737C50.3954 54.9466 50.58 55.1313 50.58 55.3529V55.8515Z" fill="white"/>
<path d="M55.4375 50.0338C57.3029 50.0338 58.6881 51.2528 58.6881 53.192C58.6881 55.0389 57.3029 56.3502 55.4375 56.3502C53.5722 56.3502 52.187 55.1312 52.187 53.192C52.2055 51.419 53.4983 50.0338 55.4375 50.0338ZM55.4375 55.0389C56.6011 55.0389 57.1921 54.2262 57.1921 53.192C57.1921 52.0839 56.4164 51.3451 55.4375 51.3451C54.4217 51.3451 53.683 52.0839 53.683 53.192C53.683 54.2447 54.4587 55.0389 55.4375 55.0389Z" fill="white"/>
<path d="M64.0799 55.0389C64.4493 55.0389 64.8926 54.8727 65.0403 54.7249V54.06H64.1354C63.9137 54.06 63.729 53.8753 63.729 53.6537V53.1551C63.729 52.9334 63.9137 52.7487 64.1354 52.7487H65.9453C66.1669 52.7487 66.3516 52.9334 66.3516 53.1551V55.2236C66.3516 55.4452 66.2408 55.5929 66.1115 55.6853C65.5575 56.1101 64.7264 56.3502 64.0615 56.3502C61.9745 56.3502 60.7925 55.0943 60.7925 53.192C60.7925 51.4374 61.9745 50.0338 63.8953 50.0338C64.634 50.0338 65.0957 50.1446 65.5575 50.3847C65.7237 50.4771 65.7976 50.6063 65.7976 50.7541C65.7976 50.8095 65.7791 50.8834 65.7421 50.9388L65.502 51.3636C65.4097 51.5113 65.2804 51.5852 65.1327 51.5852C65.0773 51.5852 64.9849 51.5667 64.9295 51.5298C64.6525 51.4005 64.3754 51.3266 64.043 51.3266C63.0457 51.3266 62.27 51.9176 62.27 53.1735C62.27 54.3186 62.9903 55.0389 64.0799 55.0389Z" fill="white"/>
<path d="M71.0619 52.4529L72.207 50.4029C72.2993 50.2367 72.484 50.1259 72.6687 50.1259H73.1119C73.3705 50.1259 73.5552 50.329 73.5552 50.5691C73.5552 50.643 73.5367 50.7169 73.4998 50.7907L71.7268 53.7642V55.8512C71.7268 56.0728 71.5421 56.2575 71.3205 56.2575H70.7295C70.5078 56.2575 70.3231 56.0728 70.3231 55.8512V53.7642L68.5686 50.7907C68.5317 50.7169 68.5132 50.643 68.5132 50.5691C68.5132 50.3475 68.6979 50.1259 68.9564 50.1259H69.4736C69.6583 50.1259 69.8429 50.2367 69.9353 50.4029L71.0619 52.4529Z" fill="white"/>
<mask id="mask0_32_1562" style="mask-type:luminance" maskUnits="userSpaceOnUse" x="0" y="0" width="90" height="90">
<path d="M27.6972 4.30512C24.0403 6.26282 20.679 8.84846 17.7979 11.7665C18.592 11.2309 19.3862 10.7692 20.1434 10.3444C20.9191 9.93813 21.6209 9.55028 22.3412 9.25478C18.8691 11.4341 15.8771 14.2968 14.9906 15.6265C13.6054 17.3072 12.9221 18.4523 12.6266 19.0987C12.3311 19.7451 12.4049 19.9298 12.7189 19.819C13.0329 19.7082 13.5685 19.3203 14.2149 18.8586C14.8798 18.4153 15.6001 17.8613 16.3388 17.455C17.2807 16.7716 17.3177 17.1041 17.4839 17.3257C17.6501 17.5473 17.9087 17.6212 19.2938 16.5869C17.4839 18.2676 16.6528 19.191 15.1014 21.1303C15.1383 21.2411 15.4338 20.9271 15.8586 20.3915C16.3204 19.8929 16.8559 19.1726 17.447 18.5446C17.7425 18.2307 18.038 17.9352 18.2781 17.6581C18.5366 17.3996 18.7952 17.1779 18.9799 17.0302C19.3677 16.7162 19.5524 16.6608 19.3493 17.0671C17.5208 18.5816 15.951 20.7424 14.5473 22.7186C14.9906 22.5154 16.2834 20.8532 17.6316 19.4496C18.9799 18.046 20.3466 16.8824 20.3835 17.1964C20.1619 17.4365 19.7371 17.8243 19.183 18.2676C18.6659 18.7478 18.038 19.2649 17.4654 19.8375C16.3204 20.9456 15.3969 22.1276 15.5262 22.497C15.5816 22.6447 17.0406 20.7609 17.8717 19.8929C15.4893 22.7186 14.2149 25.2858 13.9194 26.357C13.7716 26.8926 13.864 27.0588 14.2149 26.7633C14.5658 26.4678 15.2122 25.7106 16.2649 24.4731C14.9721 26.2831 13.1806 28.9426 12.4049 31.2143C12.4049 31.2143 12.4234 31.2143 12.4234 31.1958C12.9036 30.1062 13.8825 28.2962 14.4365 27.3728C13.7716 28.5363 13.1806 29.7552 12.645 30.9927C12.8113 30.8264 12.996 30.6418 13.1806 30.4571C13.4023 30.0138 13.6424 29.5706 13.9009 29.1458C14.1595 28.7025 14.3811 28.2593 14.6397 27.816C14.4181 28.1854 14.2334 28.5917 14.0302 28.9795C13.8271 29.3674 13.6239 29.7552 13.4577 30.18C13.9009 29.6629 14.455 29.0904 14.9906 28.444C16.819 25.8952 19.0722 23.9745 20.1434 22.7925C24.5205 17.9352 30.3382 14.4261 36.5992 12.7823C42.8786 11.1201 49.5644 11.3418 55.6591 13.3733C55.7699 13.1517 55.1604 12.7085 56.2316 12.9301C57.8754 13.4103 59.279 14.1121 60.5533 14.9617C60.8858 15.1648 61.1997 15.368 61.5137 15.5896C61.8277 15.7928 62.1601 16.0144 62.4926 16.236C63.1205 16.6977 63.8223 17.1041 64.5241 17.5473C64.6719 17.4919 64.8012 17.418 64.9489 17.3626C67.0174 19.0248 68.8828 21.0564 70.5265 23.2727C72.2072 25.1934 73.6478 27.2989 74.8483 29.5521C76.0487 31.7868 77.0091 34.1693 77.674 36.6257C77.7848 36.4594 77.8956 36.3671 78.0618 36.8473C78.6713 38.8973 79.0038 41.8708 78.9114 44.9367C78.9299 45.3799 78.9484 45.8416 78.9484 46.2849C79.0222 46.6358 79.1515 46.7282 79.2254 46.802C79.133 48.1872 78.9114 49.4246 78.6898 50.5512C77.7109 58.0496 74.2203 65.5295 68.3287 71.1255C65.3922 73.9328 61.92 76.3153 58.0046 78.0145C54.1077 79.7136 49.786 80.7663 45.298 80.9695C44.3561 81.0803 43.3957 81.0987 42.4354 81.1357C41.475 81.1172 40.5146 81.1172 39.5727 81.0249C37.6704 80.8771 35.7681 80.5632 33.9766 80.046C31.3171 79.2703 28.399 77.9406 25.758 76.223C23.1169 74.5238 20.7344 72.4738 18.8875 70.5161C18.7767 70.9039 18.0934 70.6454 17.133 70.0174C16.1911 69.3895 14.9906 68.3737 13.9194 67.3025C11.7585 65.197 9.98552 62.8884 10.0409 64.4768C9.08055 62.7591 8.06476 60.5244 7.34447 58.6406C6.62419 56.7568 6.16246 55.2792 5.92237 55.1869C5.57146 55.0392 5.20208 54.7621 4.75883 54.2635C4.5372 54.0049 4.31558 53.7094 4.07548 53.3215C3.85385 52.9337 3.61376 52.4904 3.37366 51.9364C2.43175 49.794 1.34208 46.2295 1.47137 40.5041C1.56371 38.2694 2.15472 35.4806 2.875 33.135C3.04122 32.544 3.22591 31.99 3.4106 31.4544C3.59529 30.9373 3.74304 30.4386 3.90926 30.0138C4.2417 29.1458 4.4818 28.4809 4.57414 28.093C4.68495 27.5574 4.57414 27.5574 4.35251 27.8345C4.13089 28.1115 3.76151 28.7949 3.4106 29.4228C2.70878 30.7156 2.09931 32.0823 2.30247 30.808C-0.41246 38.8419 -0.726431 47.6331 1.36055 55.7594C3.4106 63.9042 7.75079 71.4026 13.7901 77.2018C15.2861 78.6609 16.9114 79.9906 18.592 81.228C20.2912 82.447 22.0642 83.5551 23.9111 84.534C25.758 85.4943 27.6602 86.3809 29.6364 87.0827C31.5941 87.8214 33.6072 88.394 35.6573 88.8372C43.8575 90.6472 52.6117 90.0746 60.6272 87.212C61.957 86.6394 64.2656 85.716 67.1098 84.0722C69.9355 82.4285 73.3153 80.1199 76.5843 76.8694C78.2096 75.2441 79.8349 73.4157 81.3308 71.3656C82.8268 69.3156 84.212 67.0439 85.394 64.5876C87.7765 59.7118 89.4202 54.1157 89.8635 48.3165C90.3252 42.5357 89.6049 36.6072 87.8688 31.1958C86.1512 25.7844 83.4178 20.9086 80.2412 16.9194C78.6528 14.9247 76.9722 13.1517 75.273 11.5819C73.5554 10.0305 71.8194 8.71918 70.1572 7.57411C66.7958 5.33937 63.73 3.91727 61.4398 2.99382C60.8673 2.79067 60.3132 2.56904 59.7407 2.38435C54.6987 0.555931 48.6224 -0.330576 42.8601 0.112678C38.169 0.445118 33.7365 1.62713 30.0797 3.17851C29.2486 3.52942 28.4544 3.91727 27.6972 4.30512Z" fill="white"/>
</mask>
<g mask="url(#mask0_32_1562)">
<path d="M98.8211 113.863L-23.7754 98.7553L-8.76018 -23.1763L113.836 -8.08719L98.8211 113.863Z" fill="white"/>
</g>
</svg>
