<svg width="46" height="46" viewBox="0 0 46 46" fill="none" xmlns="http://www.w3.org/2000/svg">
<circle cx="23" cy="23" r="23" fill="#11809C"/>
<g clip-path="url(#clip0_13_4428)">
<path d="M29.2084 11.6392C29.9407 11.5991 30.5116 11.1892 30.948 10.092C27.1877 10.3385 23.5499 9.4509 20.0526 10.8317C17.1083 11.9998 15.6944 14.4469 15.9993 17.3842C16.2713 20.0132 18.1784 21.8963 21.2393 22.5497C22.2407 22.7624 23.1553 24.4051 22.8893 25.7767C22.701 26.7568 21.7534 26.4424 21.1317 26.5009C18.8001 26.7229 16.8094 27.629 15.3148 29.4967C13.6229 31.6141 13.9338 34.3202 15.9784 35.852C18.8689 38.0187 24.7784 38.2498 27.8124 36.3143C31.3874 34.0335 31.8029 29.5923 28.7092 26.6242C28.0725 26.014 27.373 25.4715 26.7543 24.8459C25.5018 23.5822 25.5018 22.8826 26.7064 21.5758C27.0054 21.2522 27.3431 20.9655 27.657 20.6543C29.8719 18.4444 30.2725 15.5842 28.6046 12.8782C27.9828 11.8703 28.216 11.6916 29.2173 11.6361L29.2084 11.6392ZM27.8333 30.0114C29.1037 31.534 28.4073 34.126 26.557 35.2017C25.3912 35.8797 24.1029 36.0739 22.7787 36.0307C19.7477 36.0215 17.4012 34.237 17.3175 31.8761C17.2368 29.5799 19.7686 27.5828 22.7757 27.4317C24.9697 27.3208 26.5361 28.4581 27.8363 30.0114H27.8333ZM24.3331 21.4556C22.9939 21.8932 21.4784 21.2059 20.4203 19.6803C19.3262 18.1023 18.836 16.3517 19.1469 14.4346C19.5624 11.8703 21.8521 10.844 23.9445 12.2895C25.7768 13.5562 26.3717 15.5072 26.5151 17.3965C26.5241 19.4769 25.6303 21.0303 24.3331 21.4556Z" fill="white"/>
</g>
<defs>
<clipPath id="clip0_13_4428">
<rect width="16.7273" height="27.6" fill="white" transform="translate(14.2178 10.0364)"/>
</clipPath>
</defs>
</svg>
