<svg width="46" height="46" viewBox="0 0 46 46" fill="none" xmlns="http://www.w3.org/2000/svg">
<circle cx="23" cy="23" r="23" fill="#11809C"/>
<g clip-path="url(#clip0_13_4445)">
<path d="M23.0001 26.027C20.4513 26.027 18.4793 28.2908 18.7953 30.8545L19.5369 36.8691C19.6873 38.0862 20.7081 39 21.9185 39H24.0809C25.2913 39 26.3121 38.0862 26.4625 36.8691L27.2041 30.8545C27.5201 28.2916 25.5481 26.027 22.9993 26.027H23.0001Z" fill="white"/>
<path d="M22.9999 26.027C24.9881 26.027 26.5999 24.3935 26.5999 22.3784C26.5999 20.3633 24.9881 18.7297 22.9999 18.7297C21.0117 18.7297 19.3999 20.3633 19.3999 22.3784C19.3999 24.3935 21.0117 26.027 22.9999 26.027Z" fill="white"/>
<path d="M29.6056 29.6724C31.2104 27.9932 32.2 25.7068 32.2 23.1892C32.2 18.0478 28.0728 13.8649 23 13.8649C17.9272 13.8649 13.8 18.0478 13.8 23.1892C13.8 25.7059 14.7896 27.9924 16.3944 29.6716C16.488 28.6978 16.7896 27.7541 17.2808 26.9092C16.5984 25.8349 16.2 24.5587 16.2 23.1892C16.2 19.3889 19.2504 16.2973 23 16.2973C26.7496 16.2973 29.8 19.3889 29.8 23.1892C29.8 24.5587 29.4024 25.8357 28.72 26.9092C29.2104 27.7541 29.5128 28.6978 29.6064 29.6716L29.6056 29.6724Z" fill="white"/>
<path d="M23 9C15.2808 9 9 15.3657 9 23.1892C9 28.843 12.28 33.7346 17.0128 36.0138L16.6432 33.0186C13.4872 30.9154 11.4 27.2951 11.4 23.1892C11.4 16.7068 16.604 11.4324 23 11.4324C29.396 11.4324 34.6 16.7068 34.6 23.1892C34.6 27.2951 32.512 30.9154 29.3568 33.0186L28.9872 36.0138C33.72 33.7354 37 28.8438 37 23.1892C37 15.3657 30.7192 9 23 9Z" fill="white"/>
</g>
<defs>
<clipPath id="clip0_13_4445">
<rect width="28" height="30" fill="white" transform="translate(9 9)"/>
</clipPath>
</defs>
</svg>
