<svg width="146" height="145" viewBox="0 0 146 145" fill="none" xmlns="http://www.w3.org/2000/svg">
<path d="M73 145C113.041 145 145.5 112.541 145.5 72.5C145.5 32.4594 113.041 0 73 0C32.9594 0 0.5 32.4594 0.5 72.5C0.5 112.541 32.9594 145 73 145Z" fill="white"/>
<path d="M31.757 76.3877C31.757 76.9061 31.3168 77.3463 30.7984 77.3463H29.5289C29.0105 77.3463 28.5703 76.9061 28.5703 76.3877V60.1703C28.5703 59.6519 29.0105 59.2117 29.5289 59.2117H31.0059C31.472 59.2117 31.9645 59.4708 32.2495 59.8594L37.9747 67.6833L43.4412 59.8594C43.7004 59.4708 44.1923 59.2117 44.659 59.2117H45.9285C46.4468 59.2117 46.8871 59.6519 46.8871 60.1703V76.3877C46.8871 76.9061 46.4468 77.3463 45.9285 77.3463H44.6848C44.1665 77.3463 43.7262 76.9061 43.7262 76.3877V64.2374L38.9855 70.8953C38.6487 71.362 38.2085 71.5947 37.7677 71.5947C37.327 71.5947 36.8609 71.3614 36.5241 70.8953L31.757 64.315V76.3877Z" fill="#0E2E77"/>
<path d="M62.9232 60.1698C62.9232 59.6515 63.3634 59.2112 63.8817 59.2112H65.1254C65.6437 59.2112 66.084 59.6515 66.084 60.1698V69.8328C66.084 75.3769 62.6904 77.6309 58.8819 77.6309C54.3739 77.6309 51.1614 74.9626 51.1614 69.6512V60.1693C51.1614 59.6509 51.6016 59.2107 52.12 59.2107H53.3895C53.9078 59.2107 54.3481 59.6509 54.3481 60.1693V68.9777C54.3481 72.3713 55.7469 74.6511 58.8819 74.6511C61.6278 74.6511 62.9232 72.7081 62.9232 69.1846V60.1698Z" fill="#0E2E77"/>
<path d="M75.748 70.5585H73.5199V76.3877C73.5199 76.906 73.0797 77.3463 72.5614 77.3463H71.2919C70.7735 77.3463 70.3333 76.906 70.3333 76.3877V60.1702C70.3333 59.6519 70.7476 59.2116 71.2919 59.2116C72.8464 59.1858 75.4371 59.1599 75.8515 59.1599C80.7997 59.1599 82.4318 61.6213 82.4318 64.7558C82.4318 67.8643 80.437 69.4189 78.9342 69.9372L83.4421 75.844C83.5973 76.0256 83.649 76.2325 83.649 76.4141C83.649 76.906 83.2605 77.3468 82.7163 77.3468H81.5244C81.0578 77.3468 80.5658 77.0876 80.2808 76.6991L75.747 70.559L75.748 70.5585ZM75.5929 67.5793C77.4324 67.5793 79.0641 66.6466 79.0641 64.7816C79.0641 63.3569 78.287 62.1392 75.6963 62.1392C75.1004 62.1392 74.3751 62.165 73.5199 62.1909V67.5793H75.5923H75.5929Z" fill="#0E2E77"/>
<path d="M89.1942 72.7085L87.5879 76.6205C87.4322 77.0607 86.9919 77.3458 86.5258 77.3458H85.5931C84.9971 77.3458 84.5828 76.8792 84.5828 76.3355C84.5828 76.2315 84.6086 76.1022 84.6604 75.9728L91.4476 59.8847C91.6292 59.4445 92.0694 59.1594 92.5355 59.1594H93.7791C94.2458 59.1594 94.686 59.4445 94.8671 59.8847L101.654 75.9728C101.706 76.1022 101.732 76.2315 101.732 76.3355C101.732 76.8797 101.318 77.3458 100.722 77.3458H99.6073C99.1412 77.3458 98.7004 77.0607 98.5452 76.6205L96.9389 72.7085H89.1931H89.1942ZM90.4119 69.7293H95.7227L93.0803 63.2783L90.4119 69.7293Z" fill="#0E2E77"/>
<path d="M115.646 76.3877C115.646 76.9061 115.206 77.3463 114.687 77.3463H105.257C104.739 77.3463 104.298 76.9061 104.298 76.3877V60.1703C104.298 59.6519 104.739 59.2117 105.257 59.2117H106.526C107.045 59.2117 107.485 59.6519 107.485 60.1703V74.3671H114.687C115.206 74.3671 115.646 74.8073 115.646 75.3257V76.3877Z" fill="#0E2E77"/>
<path d="M32.8072 79.8943C35.493 79.8943 37.4973 81.6468 37.4973 84.4582C37.4973 87.1312 35.4924 89.0226 32.8072 89.0226C30.122 89.0226 28.1172 87.2701 28.1172 84.4582C28.1172 81.8986 29.9958 79.8943 32.8072 79.8943ZM32.8072 87.1312C34.4842 87.1312 35.3541 85.9462 35.3541 84.4582C35.3541 82.8445 34.2319 81.7856 32.8072 81.7856C31.3445 81.7856 30.2603 82.8445 30.2603 84.4582C30.2603 85.971 31.3952 87.1312 32.8072 87.1312Z" fill="#0E2E77"/>
<path d="M48.2649 80.0457C48.58 80.0457 48.845 80.3106 48.845 80.6258V88.2914C48.845 88.6065 48.58 88.8715 48.2649 88.8715H47.6721C47.4071 88.8715 47.1173 88.7327 46.9532 88.5183L43.0449 83.576V88.2914C43.0449 88.6065 42.7799 88.8715 42.4648 88.8715H41.7337C41.4185 88.8715 41.1536 88.6065 41.1536 88.2914V80.6258C41.1536 80.3106 41.4185 80.0457 41.7337 80.0457H42.3265C42.5915 80.0457 42.8813 80.1845 43.0449 80.3988L46.9532 85.3665V80.6258C46.9532 80.3106 47.2181 80.0457 47.5333 80.0457H48.2649Z" fill="#0E2E77"/>
<path d="M57.1163 81.7856C55.7544 81.7856 54.6448 82.7184 54.6448 84.4582C54.6448 86.0217 55.729 87.1313 57.3179 87.1313C57.7719 87.1313 58.2512 87.0178 58.6925 86.7908C58.8186 86.728 58.9448 86.7027 59.0583 86.7027C59.2599 86.7027 59.4494 86.7908 59.575 87.0051L59.8775 87.4839C59.9282 87.5721 59.9657 87.6855 59.9657 87.799C59.9657 87.988 59.8775 88.1896 59.6885 88.3285C58.9194 88.8579 58.1377 89.0221 57.1289 89.0221C54.393 89.0221 52.5017 87.2068 52.5017 84.4577C52.5017 81.9234 54.0779 79.8938 57.1163 79.8938C58.0115 79.8938 58.6038 80.058 59.2599 80.3852C59.4489 80.4734 59.5624 80.6756 59.5624 80.8772C59.5624 80.978 59.537 81.0662 59.4996 81.1543L59.2219 81.7344C59.1211 81.9614 58.9068 82.0749 58.6798 82.0749C58.579 82.0749 58.4781 82.0496 58.3773 82.0116C58.0242 81.8727 57.6336 81.7846 57.1163 81.7846V81.7856Z" fill="#0E2E77"/>
<path d="M67.0643 79.8943C69.7501 79.8943 71.7543 81.6468 71.7543 84.4582C71.7543 87.1312 69.7495 89.0226 67.0643 89.0226C64.3791 89.0226 62.3743 87.2701 62.3743 84.4582C62.3743 81.8986 64.2529 79.8943 67.0643 79.8943ZM67.0643 87.1312C68.7413 87.1312 69.6112 85.9462 69.6112 84.4582C69.6112 82.8445 68.489 81.7856 67.0643 81.7856C65.6016 81.7856 64.5174 82.8445 64.5174 84.4582C64.5174 85.971 65.6523 87.1312 67.0643 87.1312Z" fill="#0E2E77"/>
<path d="M81.0213 88.2914C81.0213 88.6065 80.7563 88.8715 80.4412 88.8715H75.9908C75.6756 88.8715 75.4106 88.6065 75.4106 88.2914V80.6258C75.4106 80.3106 75.6756 80.0457 75.9908 80.0457H76.848C77.1631 80.0457 77.4281 80.3106 77.4281 80.6258V86.9802H80.4417C80.7568 86.9802 81.0218 87.2451 81.0218 87.5603V88.2914H81.0213Z" fill="#0E2E77"/>
<path d="M88.0572 79.8943C90.743 79.8943 92.7473 81.6468 92.7473 84.4582C92.7473 87.1312 90.7424 89.0226 88.0572 89.0226C85.372 89.0226 83.3672 87.2701 83.3672 84.4582C83.3672 81.8986 85.2458 79.8943 88.0572 79.8943ZM88.0572 87.1312C89.7342 87.1312 90.6042 85.9462 90.6042 84.4582C90.6042 82.8445 89.4819 81.7856 88.0572 81.7856C86.5945 81.7856 85.5103 82.8445 85.5103 84.4582C85.5103 85.971 86.6452 87.1312 88.0572 87.1312Z" fill="#0E2E77"/>
<path d="M100.527 87.1318C101.056 87.1318 101.712 86.8795 101.914 86.6905V85.7324H100.615C100.3 85.7324 100.035 85.4674 100.035 85.1523V84.4207C100.035 84.1056 100.3 83.8406 100.615 83.8406H103.225C103.54 83.8406 103.805 84.1056 103.805 84.4207V87.3962C103.805 87.7114 103.641 87.9383 103.464 88.0645C102.657 88.6694 101.46 89.0226 100.501 89.0226C97.4758 89.0226 95.7734 87.2073 95.7734 84.4582C95.7734 81.9239 97.4753 79.8943 100.249 79.8943C101.308 79.8943 101.989 80.0458 102.657 80.4111C102.884 80.5372 103.01 80.7389 103.01 80.9532C103.01 81.0413 102.985 81.1421 102.935 81.2303L102.594 81.8352C102.468 82.0495 102.279 82.163 102.065 82.163C101.977 82.163 101.863 82.1377 101.763 82.0875C101.372 81.898 100.955 81.7851 100.489 81.7851C99.0393 81.7851 97.9171 82.6423 97.9171 84.4576C97.9171 86.084 98.9512 87.1307 100.527 87.1307L100.527 87.1318Z" fill="#0E2E77"/>
<path d="M110.613 83.3872L112.265 80.437C112.391 80.1974 112.655 80.0464 112.92 80.0464H113.551C113.916 80.0464 114.181 80.3489 114.181 80.6767C114.181 80.7775 114.156 80.891 114.093 80.9918L111.533 85.2785V88.2921C111.533 88.6072 111.269 88.8722 110.953 88.8722H110.096C109.781 88.8722 109.516 88.6072 109.516 88.2921V85.2785L106.981 80.9918C106.919 80.891 106.893 80.7775 106.893 80.6767C106.893 80.3489 107.158 80.0464 107.524 80.0464H108.28C108.545 80.0464 108.809 80.1979 108.936 80.437L110.613 83.3872Z" fill="#0E2E77"/>
<mask id="mask0_202_1426" style="mask-type:luminance" maskUnits="userSpaceOnUse" x="7" y="7" width="132" height="131">
<path d="M47.9776 13.8278C42.6895 16.6672 37.839 20.3796 33.6795 24.6067C34.8318 23.844 35.9862 23.1789 37.0741 22.5586C38.1958 21.9838 39.2188 21.4005 40.236 20.9745C35.2182 24.129 30.8866 28.2622 29.6234 30.1709C27.6181 32.5927 26.6373 34.2412 26.206 35.1845C25.7732 36.1283 25.8951 36.3801 26.3496 36.2276C26.8078 36.0771 27.588 35.5134 28.5133 34.844C29.4803 34.2096 30.5186 33.4041 31.5765 32.8297C32.9262 31.8458 32.9938 32.3277 33.2308 32.6328C33.471 32.949 33.8378 33.0472 35.8506 31.5729C33.2413 34.0048 32.0273 35.335 29.7823 38.131C29.8324 38.2989 30.2653 37.8296 30.8723 37.0711C31.5263 36.3521 32.3218 35.3091 33.1796 34.4065C33.6066 33.9536 34.0226 33.5133 34.3931 33.1206C34.7758 32.7405 35.1374 32.4323 35.4135 32.2048C35.9714 31.755 36.2306 31.6753 35.9461 32.2702C33.3079 34.4534 31.0449 37.5805 29.0032 40.4404C29.6466 40.1443 31.5184 37.7584 33.4462 35.7129C35.3955 33.6859 37.3671 32.0089 37.4162 32.4645C37.1084 32.8202 36.4724 33.3687 35.6869 34.0132C34.9405 34.6947 34.0226 35.4558 33.2128 36.2719C31.558 37.8745 30.2341 39.5916 30.4025 40.1263C30.4701 40.337 32.5979 37.6158 33.7782 36.3521C30.346 40.432 28.498 44.1523 28.0657 45.6842C27.8561 46.4612 27.977 46.695 28.4906 46.2601C28.9947 45.8214 29.9206 44.7282 31.4403 42.9536C29.568 45.5633 26.9941 49.4198 25.8545 52.6921C25.8613 52.6905 25.8708 52.6789 25.8793 52.6741C26.5724 51.0984 27.9781 48.4987 28.7952 47.1543C27.8292 48.8323 26.992 50.5928 26.2176 52.3759C26.4636 52.1468 26.7228 51.8813 26.9878 51.6004C27.3209 50.9596 27.6613 50.323 28.034 49.6954C28.404 49.0672 28.7176 48.4021 29.1082 47.7634C28.7772 48.3066 28.5112 48.8862 28.2182 49.452C27.9337 50.0227 27.6254 50.5833 27.3805 51.176C28.0277 50.418 28.8274 49.5946 29.5864 48.6576C32.2389 44.979 35.4816 42.2082 37.0287 40.4821C43.3456 33.4695 51.7418 28.4068 60.803 26.0357C69.8632 23.6334 79.5194 23.9501 88.3267 26.8945C88.4735 26.5693 87.6189 25.9285 89.1639 26.2457C91.5419 26.9267 93.562 27.9476 95.4191 29.1706C95.8968 29.453 96.3571 29.7629 96.8137 30.0833C97.2771 30.3894 97.7432 30.6977 98.2157 31.0097C99.1357 31.669 100.127 32.2623 101.156 32.9168C101.36 32.8303 101.568 32.7416 101.775 32.6534C104.757 35.0483 107.459 37.9801 109.841 41.1879C112.268 43.9491 114.347 47.0081 116.079 50.2481C117.812 53.4875 119.212 56.9133 120.173 60.4632C120.331 60.2267 120.496 60.0884 120.741 60.79C121.614 63.7571 122.101 68.0575 121.958 72.4683C121.989 73.1218 122.023 73.7758 122.001 74.4182C122.095 74.9266 122.288 75.0696 122.406 75.1599C122.271 77.1737 121.954 78.9446 121.621 80.5694C120.219 91.4106 115.164 102.195 106.652 110.286C102.422 114.34 97.3943 117.788 91.7462 120.238C86.1087 122.699 79.881 124.216 73.3978 124.517C72.0264 124.666 70.6482 124.695 69.262 124.744C67.8822 124.72 66.4923 124.719 65.1167 124.585C62.3629 124.364 59.6264 123.923 57.0209 123.173C53.167 122.048 48.9536 120.141 45.1557 117.654C41.3313 115.202 37.9082 112.233 35.2393 109.401C35.0915 109.964 34.0907 109.593 32.7145 108.687C31.3574 107.767 29.6329 106.306 28.0831 104.759C24.9534 101.706 22.397 98.3715 22.4873 100.672C21.1101 98.1883 19.6431 94.9515 18.5953 92.2499C17.566 89.5414 16.8819 87.3989 16.5335 87.2616C16.0215 87.0542 15.4836 86.6488 14.8507 85.9193C14.5393 85.5535 14.1983 85.1069 13.8562 84.5558C13.53 84.001 13.1879 83.3444 12.8295 82.5674C11.4787 79.4672 9.89093 74.3137 10.0878 66.0564C10.2288 62.8349 11.0802 58.8126 12.1269 55.4248C12.3661 54.5702 12.6411 53.7615 12.9108 53.0088C13.1795 52.256 13.4017 51.5445 13.6424 50.9206C14.1238 49.6727 14.4706 48.6972 14.5905 48.1366C14.7589 47.3533 14.6005 47.3607 14.279 47.7629C13.9565 48.1688 13.4371 49.1374 12.9298 50.0575C11.9221 51.9251 11.0454 53.8956 11.3193 52.0676C7.39521 63.6663 6.95339 76.3645 9.95638 88.103C12.9119 99.8585 19.1992 110.686 27.9084 119.067C30.062 121.188 32.4258 123.082 34.8471 124.886C37.3048 126.643 39.8649 128.256 42.5327 129.673C45.2106 131.064 47.9507 132.338 50.7948 133.349C53.6199 134.407 56.5395 135.235 59.4992 135.882C71.3497 138.499 83.9909 137.676 95.5658 133.525C97.4883 132.699 100.832 131.353 104.927 128.982C109.004 126.606 113.894 123.276 118.612 118.573C120.97 116.232 123.314 113.589 125.476 110.617C127.631 107.643 129.626 104.365 131.35 100.839C134.801 93.8055 137.164 85.7171 137.806 77.3437C138.477 68.9808 137.438 60.422 134.928 52.6155C132.445 44.791 128.502 37.7468 123.921 32.0026C121.634 29.1236 119.196 26.5593 116.737 24.3037C114.252 22.0735 111.751 20.1606 109.35 18.5189C104.508 15.2863 100.07 13.2282 96.7619 11.8969C95.9437 11.6061 95.1409 11.2878 94.3169 11.0275C86.9675 8.41568 78.2129 7.13984 69.887 7.7833C63.1103 8.2531 56.7068 9.9734 51.4367 12.2078C50.2205 12.7235 49.0645 13.2667 47.9781 13.8284" fill="white"/>
</mask>
<g mask="url(#mask0_202_1426)">
<path d="M-4.68014 -25.8668L-26.3726 150.27L150.698 172.077L172.391 -4.05938L-4.68014 -25.8668Z" fill="url(#paint0_linear_202_1426)"/>
</g>
<defs>
<linearGradient id="paint0_linear_202_1426" x1="137.453" y1="81.2784" x2="8.18569" y2="65.3582" gradientUnits="userSpaceOnUse">
<stop stop-color="#18EADF"/>
<stop offset="0.115" stop-color="#17DDD7"/>
<stop offset="0.327" stop-color="#15BAC4"/>
<stop offset="0.613" stop-color="#1283A6"/>
<stop offset="0.96" stop-color="#0E377C"/>
<stop offset="1" stop-color="#0E2E77"/>
</linearGradient>
</defs>
</svg>
