<svg width="47" height="29" viewBox="0 0 47 29" fill="none" xmlns="http://www.w3.org/2000/svg">
<g clip-path="url(#clip0_13_6164)">
<path d="M13.177 15.381C16.6425 15.381 19.4518 12.6094 19.4518 9.19048C19.4518 5.77157 16.6425 3 13.177 3C9.71159 3 6.90228 5.77157 6.90228 9.19048C6.90228 12.6094 9.71159 15.381 13.177 15.381Z" fill="#11809C"/>
<path d="M14.5073 16.6191H11.8468C5.2833 16.6396 -0.0207122 21.9055 -5.83626e-07 28.3809V28.381C-5.83626e-07 28.7229 0.280954 29.0001 0.627476 29.0001H25.7265C26.0879 28.9676 26.3621 28.6647 26.354 28.3067C26.3402 21.8575 21.0443 16.6327 14.5073 16.6191H14.5073Z" fill="#11809C"/>
</g>
<g clip-path="url(#clip1_13_6164)">
<path d="M29.5402 13.8095C33.3642 13.8095 36.4641 10.7182 36.4641 6.90476C36.4641 3.09137 33.3642 0 29.5402 0C25.7163 0 22.6163 3.09137 22.6163 6.90476C22.6163 10.7182 25.7163 13.8095 29.5402 13.8095Z" fill="#005D7B"/>
<path d="M31.0081 15.1904H28.0723C20.8299 15.2133 14.9772 21.0868 15 28.3093V28.3095C15 28.6908 15.31 29 15.6924 29H43.3879C43.7866 28.9637 44.0892 28.6259 44.0803 28.2266C44.0651 21.0332 38.2213 15.2056 31.008 15.1904H31.0081Z" fill="#005D7B"/>
</g>
<defs>
<clipPath id="clip0_13_6164">
<rect width="29" height="26" fill="white" transform="translate(0 3)"/>
</clipPath>
<clipPath id="clip1_13_6164">
<rect width="32" height="29" fill="white" transform="translate(15)"/>
</clipPath>
</defs>
</svg>
