<svg width="46" height="46" viewBox="0 0 46 46" fill="none" xmlns="http://www.w3.org/2000/svg">
<circle cx="23" cy="23" r="23" fill="#11809C"/>
<g clip-path="url(#clip0_13_4432)">
<path d="M22.4524 26.8642C21.5623 26.8752 21.3038 27.2081 21.3193 28.0315C21.3546 29.8163 21.3038 31.6011 21.3392 33.3859C21.3546 34.194 21.1315 34.5773 20.2237 34.5554C18.1409 34.5028 16.0536 34.5072 13.9707 34.5532C13.1314 34.5707 12.9348 34.2269 12.9503 33.4691C12.99 31.45 13.0077 29.4287 12.9436 27.4095C12.9149 26.5007 13.2816 26.3036 14.1033 26.3255C15.9012 26.3715 17.7035 26.3058 19.5037 26.3518C20.343 26.3737 20.6964 26.1372 20.6721 25.2459C20.65 24.4684 20.5418 24.0282 19.5942 24.0523C17.37 24.1071 15.1414 24.0436 12.9149 24.0808C11.4859 24.1049 10.7614 24.729 10.7283 26.1306C10.6598 28.9951 10.6576 31.8617 10.726 34.7262C10.7614 36.1956 11.4881 36.7694 13.0276 36.7891C14.4014 36.8066 15.7753 36.7935 17.1491 36.7913C18.5694 36.7913 19.9918 36.8176 21.4121 36.7847C22.8721 36.7497 23.4728 36.1475 23.4883 34.7065C23.5104 32.499 23.4751 30.2915 23.506 28.084C23.517 27.3241 23.422 26.8555 22.4568 26.8664L22.4524 26.8642Z" fill="white"/>
<path d="M25.5694 20.717C26.5148 20.7214 26.6716 20.2944 26.6362 19.5148C26.5943 18.5775 26.6561 17.6358 26.6186 16.6985C26.5899 16.0021 26.7909 15.6604 27.5661 15.6889C28.7964 15.7349 30.0289 15.7283 31.2592 15.6889C31.9748 15.6648 32.2929 15.8816 32.2642 16.6415C32.2178 17.8613 32.2134 19.0833 32.2642 20.3031C32.2973 21.0806 31.9594 21.2667 31.257 21.2339C30.3116 21.1923 29.3597 21.2799 28.4187 21.2098C27.4756 21.1397 27.343 21.593 27.3342 22.3814C27.3276 23.2202 27.5882 23.564 28.4717 23.5289C29.8898 23.472 31.3122 23.5246 32.7324 23.5092C33.9252 23.4961 34.5856 22.9289 34.5746 21.6916C34.5635 20.6119 34.5723 19.5323 34.5723 18.4526C34.5723 17.373 34.5613 16.2933 34.5746 15.2137C34.5878 14.1231 34.0467 13.5099 32.9666 13.4902C30.696 13.4486 28.4231 13.4442 26.1503 13.4683C24.9863 13.4814 24.4716 14.1384 24.4982 15.2881C24.5291 16.6963 24.5291 18.1044 24.4937 19.5126C24.4739 20.2922 24.6351 20.717 25.5738 20.7192L25.5694 20.717Z" fill="white"/>
<path d="M23.4991 11.5125C23.5124 10.135 22.8232 9.30281 21.5002 9.26996C18.0943 9.18674 14.6839 9.17141 11.278 9.25682C9.79815 9.29405 9.22608 10.0737 9.20841 11.5694C9.19074 13.1659 9.20399 14.7624 9.20399 16.3588C9.20399 17.8612 9.19736 19.3635 9.20399 20.8658C9.21503 22.655 9.97706 23.4806 11.7485 23.5047C14.3526 23.5397 16.959 23.4828 19.5609 23.5309C20.4731 23.5485 20.6609 23.1696 20.6653 22.3593C20.6697 21.5447 20.4864 21.1855 19.5697 21.2074C17.2505 21.2643 14.9291 21.1899 12.6099 21.2446C11.733 21.2643 11.468 20.9796 11.4834 20.1256C11.5298 17.6378 11.5298 15.1478 11.4834 12.66C11.468 11.7796 11.6889 11.4052 12.6607 11.4249C15.1213 11.4774 17.5863 11.4752 20.0468 11.3986C21.0408 11.3679 21.2197 11.7687 21.2131 12.6294C21.1976 14.9288 21.2771 17.2304 21.2815 19.5299C21.2815 20.3183 21.4825 20.7169 22.4014 20.7169C23.3136 20.7169 23.5124 20.3555 23.5013 19.5408C23.4638 16.8647 23.4682 14.1886 23.4947 11.5125H23.4991Z" fill="white"/>
<path d="M33.9158 24.0764C32.0671 24.0633 30.2183 24.1049 28.374 24.0545C27.5236 24.0326 27.3403 24.4027 27.3381 25.1495C27.3359 25.9247 27.4618 26.3934 28.416 26.3518C29.834 26.2905 31.2586 26.3649 32.6789 26.3277C33.3901 26.3102 33.6993 26.5138 33.6772 27.2759C33.6287 28.9184 33.6419 30.5652 33.6728 32.2077C33.6861 32.8603 33.474 33.1384 32.7871 33.1275C31.0356 33.099 29.2818 33.1012 27.528 33.1275C26.861 33.1362 26.6048 32.8932 26.6202 32.223C26.6534 30.7667 26.6004 29.3104 26.6379 27.8541C26.6578 27.1204 26.3861 26.862 25.6484 26.873C24.9394 26.8839 24.4689 26.9606 24.491 27.8453C24.5352 29.7703 24.4954 31.6974 24.5197 33.6224C24.5352 34.7634 25.1845 35.3415 26.3088 35.3678C27.5391 35.3963 28.7716 35.3744 30.0041 35.3766C31.2829 35.3766 32.5618 35.3634 33.8407 35.381C35.1814 35.3985 35.9081 34.7262 35.9302 33.4341C35.9744 30.9441 35.9766 28.4541 35.9258 25.9663C35.9015 24.74 35.1704 24.0808 33.9158 24.072V24.0764Z" fill="white"/>
<path d="M23.1284 21.2688H21.8694C21.6071 21.2688 21.3945 21.4796 21.3945 21.7396V22.9879C21.3945 23.248 21.6071 23.4588 21.8694 23.4588H23.1284C23.3907 23.4588 23.6033 23.248 23.6033 22.9879V21.7396C23.6033 21.4796 23.3907 21.2688 23.1284 21.2688Z" fill="white"/>
<path d="M26.0552 21.2688H24.7962C24.5339 21.2688 24.3213 21.4796 24.3213 21.7396V22.9879C24.3213 23.248 24.5339 23.4588 24.7962 23.4588H26.0552C26.3174 23.4588 26.5301 23.248 26.5301 22.9879V21.7396C26.5301 21.4796 26.3174 21.2688 26.0552 21.2688Z" fill="white"/>
<path d="M23.1284 24.1377H21.8694C21.6071 24.1377 21.3945 24.3485 21.3945 24.6085V25.8568C21.3945 26.1168 21.6071 26.3277 21.8694 26.3277H23.1284C23.3907 26.3277 23.6033 26.1168 23.6033 25.8568V24.6085C23.6033 24.3485 23.3907 24.1377 23.1284 24.1377Z" fill="white"/>
<path d="M26.0552 24.1376H24.7962C24.5339 24.1376 24.3213 24.3484 24.3213 24.6084V25.8567C24.3213 26.1167 24.5339 26.3275 24.7962 26.3275H26.0552C26.3174 26.3275 26.5301 26.1167 26.5301 25.8567V24.6084C26.5301 24.3484 26.3174 24.1376 26.0552 24.1376Z" fill="white"/>
</g>
<defs>
<clipPath id="clip0_13_4432">
<rect width="26.7636" height="27.6" fill="white" transform="translate(9.2002 9.19995)"/>
</clipPath>
</defs>
</svg>
