<svg width="41" height="41" viewBox="0 0 41 41" fill="none" xmlns="http://www.w3.org/2000/svg">
<path d="M20.4999 17.6933L21.2505 16.3933C21.4763 16.0022 21.3257 15.6569 21.2505 15.5266C21.1753 15.3964 20.9516 15.0933 20.4999 15.0933C20.0483 15.0933 19.8246 15.3963 19.7494 15.5266C19.6742 15.6569 19.5236 16.0021 19.7494 16.3933L20.4999 17.6933Z" fill="#11809C"/>
<path d="M12.2879 28.4505C12.2128 28.5808 12.0621 28.926 12.2879 29.3172C12.5137 29.7083 12.888 29.7505 13.0384 29.7505C13.1889 29.7505 13.5632 29.7083 13.789 29.3171L14.5396 28.0172H13.0384C12.5869 28.0172 12.3632 28.3202 12.2879 28.4505Z" fill="#11809C"/>
<path d="M18.7004 25.6149H22.2996L20.5 22.4979L18.7004 25.6149Z" fill="#11809C"/>
<path d="M26.9062 10.4102C26.2429 10.4102 25.7051 9.87235 25.7051 9.20898V0H8.48828C6.5013 0 4.88477 1.61654 4.88477 3.60352V37.3965C4.88477 39.3835 6.5013 41 8.48828 41H32.5117C34.4987 41 36.1152 39.3835 36.1152 37.3965V10.4102H26.9062ZM30.7926 30.5184C30.2018 31.5418 29.1435 32.1529 27.9617 32.1529C26.7798 32.1529 25.7215 31.5419 25.1306 30.5184L23.6865 28.0173H17.3135L15.8694 30.5184C15.2785 31.5418 14.2201 32.1529 13.0383 32.1529H13.0382C11.8564 32.1529 10.7981 31.5418 10.2073 30.5183C9.61642 29.4949 9.61634 28.2728 10.2073 27.2494C10.7982 26.2259 11.8565 25.6149 13.0383 25.6149H15.9264L19.113 20.0956L17.6689 17.5944C17.078 16.571 17.0779 15.3489 17.6689 14.3254C18.2598 13.3019 19.3181 12.6909 20.5 12.6909C21.6819 12.6909 22.7402 13.3019 23.3311 14.3254C23.9221 15.3489 23.922 16.571 23.3311 17.5944L21.887 20.0956L25.0735 25.6149H27.9616C29.1434 25.6149 30.2017 26.2259 30.7926 27.2494C31.3836 28.2729 31.3835 29.4949 30.7926 30.5184Z" fill="#11809C"/>
<path d="M27.9616 28.0172H26.4604L27.211 29.3172C27.4368 29.7083 27.8111 29.7505 27.9616 29.7505C28.1121 29.7505 28.4863 29.7083 28.7121 29.3172C28.9379 28.926 28.7873 28.5808 28.7121 28.4505C28.6369 28.3202 28.4132 28.0172 27.9616 28.0172Z" fill="#11809C"/>
<path d="M28.1074 0.703369V8.00786H35.4114L28.1074 0.703369Z" fill="#11809C"/>
</svg>
