<svg width="36" height="30" viewBox="0 0 36 30" fill="none" xmlns="http://www.w3.org/2000/svg">
<path d="M14.9945 13.8095C18.9379 13.8095 22.1347 10.7182 22.1347 6.90476C22.1347 3.09137 18.9379 0 14.9945 0C11.051 0 7.85425 3.09137 7.85425 6.90476C7.85425 10.7182 11.051 13.8095 14.9945 13.8095Z" fill="#CEA026"/>
<path d="M16.5084 15.1904H13.4809C6.0121 15.2133 -0.0234996 21.0868 6.87897e-05 28.3093V28.3095C6.87897e-05 28.6908 0.319776 29 0.714093 29H29.2751C29.6863 28.9637 29.9983 28.6259 29.9891 28.2266C29.9734 21.0332 23.947 15.2056 16.5083 15.1904H16.5084Z" fill="#CEA026"/>
<path d="M27.5 30C32.1944 30 36 26.1944 36 21.5C36 16.8056 32.1944 13 27.5 13C22.8056 13 19 16.8056 19 21.5C19 26.1944 22.8056 30 27.5 30Z" fill="#005D7B"/>
<path d="M26.3385 26L22.4008 22.9376C21.9453 22.5834 21.8663 21.9308 22.2243 21.48C22.5822 21.0293 23.2415 20.9508 23.6972 21.3053L26.1785 23.235L31.2129 18.3006C31.6244 17.8971 32.2886 17.9002 32.6963 18.3076C33.104 18.7149 33.1008 19.3722 32.6892 19.7756L26.3387 26H26.3385Z" fill="#FFD37D"/>
</svg>
